<?xml version="1.0" encoding="utf-8"?>
<!-- Generator: Adobe Illustrator 21.0.0, SVG Export Plug-In . SVG Version: 6.00 Build 0)  -->
<svg version="1.1" id="Camada_1" xmlns="http://www.w3.org/2000/svg" xmlns:xlink="http://www.w3.org/1999/xlink" x="0px" y="0px"
	 viewBox="0 0 1452 268" style="enable-background:new 0 0 1452 268;" xml:space="preserve">
<style type="text/css">
	.st0{fill:#fff;}
	.st1{fill:#fff;}
</style>
<g>
	<path class="st0" d="M322.2,101c0,20.9-6.2,37-18.5,48.4c-12.3,11.4-29.8,17.1-52.5,17.1h-14.2v62.1h-50.5V41.5h64.7
		c23.6,0,41.4,5.2,53.2,15.5C316.2,67.3,322.2,81.9,322.2,101z M236.9,125.3h9.2c7.6,0,13.6-2.1,18.1-6.4c4.5-4.3,6.7-10.2,6.7-17.7
		c0-12.6-7-18.9-21-18.9h-13.1V125.3z"/>
	<path class="st0" d="M379.5,160.4v68.1H329V41.5h61.3c50.8,0,76.3,18.4,76.3,55.3c0,21.7-10.6,38.4-31.7,50.3l54.5,81.5H432
		l-39.7-68.1H379.5z M379.5,122.4h9.5c17.7,0,26.5-7.8,26.5-23.4c0-12.9-8.7-19.3-26-19.3h-10V122.4z"/>
	<path class="st0" d="M651.3,134.7c0,31.5-7.7,55.4-23.2,71.8c-15.4,16.4-38,24.6-67.8,24.6c-29.3,0-51.8-8.2-67.5-24.7
		c-15.7-16.5-23.5-40.4-23.5-71.9c0-31.1,7.8-54.9,23.4-71.3c15.6-16.4,38.2-24.6,67.9-24.6c29.8,0,52.3,8.1,67.7,24.4
		C643.7,79.2,651.3,103.2,651.3,134.7z M522.6,134.7c0,36.2,12.6,54.3,37.7,54.3c12.8,0,22.3-4.4,28.5-13.2
		c6.2-8.8,9.3-22.5,9.3-41.1c0-18.7-3.1-32.5-9.4-41.4c-6.3-8.9-15.6-13.4-28.1-13.4C535.3,80,522.6,98.2,522.6,134.7z"/>
	<path class="st0" d="M658.1,41.5h65.3c25.4,0,44.3,3.8,56.6,11.3c12.3,7.5,18.5,19.3,18.5,35.2c0,10.5-2.7,19.4-8.1,26.9
		c-5.4,7.4-12.5,12.2-21.2,14.3v1.3c11.6,3.1,20,8.2,25.2,15.4c5.2,7.2,7.8,16.5,7.8,27.9c0,17-6.4,30.3-19.1,40.1
		c-12.8,9.8-30.1,14.7-52.1,14.7h-72.8V41.5z M708.7,113.2h15.2c7.2,0,12.9-1.5,16.8-4.5c4-3,5.9-7.4,5.9-13.3
		c0-10.5-7.9-15.7-23.8-15.7h-14.2V113.2z M708.7,150.2v39.3h17.8c15.8,0,23.7-6.7,23.7-20c0-6.2-2.1-11-6.3-14.3
		c-4.2-3.3-10.3-5-18.4-5H708.7z"/>
	<path class="st0" d="M967.7,41.5V154c0,24.5-6.9,43.4-20.8,56.9s-33.8,20.2-59.9,20.2c-25.5,0-45.1-6.5-58.8-19.6
		c-13.7-13-20.5-31.8-20.5-56.3V41.5h50.8v109.8c0,13.2,2.5,22.8,7.4,28.8c4.9,6,12.2,9,21.9,9c10.3,0,17.8-3,22.5-8.9
		c4.6-5.9,7-15.6,7-29.1V41.5H967.7z"/>
	<path class="st0" d="M1107.3,171.7c0,11.6-2.9,21.9-8.8,30.9c-5.9,9-14.4,16-25.5,21c-11.1,5-24.1,7.5-39,7.5
		c-12.5,0-22.9-0.9-31.3-2.6c-8.4-1.7-17.2-4.8-26.4-9.1v-45c9.6,4.9,19.7,8.8,30.1,11.6c10.4,2.8,20,4.2,28.7,4.2
		c7.5,0,13-1.3,16.5-3.9c3.5-2.6,5.2-5.9,5.2-10c0-2.6-0.7-4.8-2.1-6.7c-1.4-1.9-3.7-3.9-6.8-5.8c-3.1-2-11.4-6-24.9-12
		c-12.2-5.5-21.3-10.9-27.4-16.1c-6.1-5.2-10.6-11.2-13.6-17.9c-2.9-6.7-4.4-14.7-4.4-23.9c0-17.2,6.3-30.7,18.8-40.3
		c12.5-9.6,29.8-14.5,51.7-14.5c19.4,0,39.1,4.5,59.2,13.4l-15.5,39c-17.5-8-32.6-12-45.3-12c-6.6,0-11.3,1.2-14.3,3.5
		c-3,2.3-4.5,5.2-4.5,8.6c0,3.7,1.9,7,5.7,9.9c3.8,2.9,14.1,8.2,30.9,15.9c16.1,7.3,27.3,15,33.6,23.3
		C1104.2,148.6,1107.3,159.1,1107.3,171.7z"/>
	<path class="st0" d="M1202.5,80.2c-12,0-21.4,4.9-28.1,14.8c-6.7,9.9-10.1,23.4-10.1,40.8c0,36,13.7,54,41.1,54
		c8.3,0,16.3-1.2,24.1-3.5c7.8-2.3,15.6-5.1,23.4-8.3v42.7c-15.6,6.9-33.3,10.4-53,10.4c-28.2,0-49.9-8.2-64.9-24.6
		c-15.1-16.4-22.6-40-22.6-71c0-19.4,3.6-36.4,10.9-51.1c7.3-14.7,17.8-26,31.5-33.8c13.7-7.9,29.8-11.8,48.3-11.8
		c20.2,0,39.5,4.4,58,13.2l-15.5,39.8c-6.9-3.2-13.8-6-20.7-8.2C1217.9,81.3,1210.5,80.2,1202.5,80.2z"/>
	<path class="st0" d="M1392.1,228.5l-9.2-35.1h-60.8l-9.5,35.1h-55.5l61-187.8h67.4l61.8,187.8H1392.1z M1372.3,152l-8.1-30.7
		c-1.9-6.8-4.2-15.7-6.8-26.5c-2.7-10.8-4.5-18.6-5.3-23.3c-0.8,4.4-2.3,11.5-4.5,21.5c-2.3,10-7.3,29.6-15,59H1372.3z"/>
</g>
<g>
	<path class="st1" d="M233.4,163.1l-77.5-45.5c0.5-14.5-15.4-16.1-15.4-16.1l0,0c2-6,3-12.3,3-18.9c0-33.4-27.1-60.5-60.5-60.5
		c-33.4,0-60.5,27.1-60.5,60.5S49.7,143,83.1,143c14.9,0,28.5-5.4,39.1-14.3c-0.1,0.1-0.1,0.1-0.1,0.1l3.9,5.4
		c-14.5,10.7-36.5,13.6-36.5,13.6l3.8,36.4l-8.8,10.8l-8-12.3l3.6-35.5l-1.8,0c-14,0-36-13-36-13c-27.3,19.7-31.3,96.8-31.3,96.8
		h112.2c5.7-12-1-64.8-1-64.8c18.1-1.3,29.6-18.1,29.6-18.1l63.3,37.9C243.9,194.6,233.4,163.1,233.4,163.1z M83.6,134.2
		c-28.2,0-51-22.8-51-51c0-28.2,22.8-51,51-51c28.2,0,51,22.8,51,51C134.6,111.4,111.8,134.2,83.6,134.2z"/>
	<path class="st1" d="M100.9,68.1L100.9,68.1c-0.6-0.9-2.5-0.9-2.5-0.9c-2,0.5-1.7,1.7-1.7,1.7l-1.5,1.4l-16.4-0.7
		c0,0-8.8-5.1-8.5-7.5c0,0-7.8,6-9,12.5c0,0-2.2,11.3,0,14.8c0,0,4.3,13,19,15c0,0,20.8,3.2,24.5-21.1
		C104.8,83.2,105.3,72.1,100.9,68.1z"/>
</g>
</svg>
