<?xml version="1.0" encoding="utf-8"?>
<!-- Generator: Adobe Illustrator 21.0.0, SVG Export Plug-In . SVG Version: 6.00 Build 0)  -->
<svg version="1.1" id="Camada_1" xmlns="http://www.w3.org/2000/svg" xmlns:xlink="http://www.w3.org/1999/xlink" x="0px" y="0px"
	 viewBox="0 0 1272 268" style="enable-background:new 0 0 1272 268;" xml:space="preserve">
<style type="text/css">
	.st0{fill:#fff;}
</style>
<g>
	<path class="st0" d="M142.2,101c0,20.9-6.2,37-18.5,48.4c-12.3,11.4-29.8,17.1-52.5,17.1H56.9v62.1H6.4V41.5h64.7
		c23.6,0,41.4,5.2,53.2,15.5C136.2,67.3,142.2,81.9,142.2,101z M56.9,125.3h9.2c7.6,0,13.6-2.1,18.1-6.4c4.5-4.3,6.7-10.2,6.7-17.7
		c0-12.6-7-18.9-21-18.9H56.9V125.3z"/>
	<path class="st0" d="M199.5,160.4v68.1H149V41.5h61.3c50.8,0,76.3,18.4,76.3,55.3c0,21.7-10.6,38.4-31.7,50.3l54.5,81.5H252
		l-39.7-68.1H199.5z M199.5,122.4h9.5c17.7,0,26.5-7.8,26.5-23.4c0-12.9-8.7-19.3-26-19.3h-10V122.4z"/>
	<path class="st0" d="M471.3,134.7c0,31.5-7.7,55.4-23.2,71.8c-15.4,16.4-38,24.6-67.8,24.6c-29.3,0-51.8-8.2-67.5-24.7
		c-15.7-16.5-23.5-40.4-23.5-71.9c0-31.1,7.8-54.9,23.4-71.3c15.6-16.4,38.2-24.6,67.9-24.6c29.8,0,52.3,8.1,67.7,24.4
		C463.7,79.2,471.3,103.2,471.3,134.7z M342.6,134.7c0,36.2,12.6,54.3,37.7,54.3c12.8,0,22.3-4.4,28.5-13.2
		c6.2-8.8,9.3-22.5,9.3-41.1c0-18.7-3.1-32.5-9.4-41.4c-6.3-8.9-15.6-13.4-28.1-13.4C355.3,80,342.6,98.2,342.6,134.7z"/>
	<path class="st0" d="M478.1,41.5h65.3c25.4,0,44.3,3.8,56.6,11.3c12.3,7.5,18.5,19.3,18.5,35.2c0,10.5-2.7,19.4-8.1,26.9
		c-5.4,7.4-12.5,12.2-21.2,14.3v1.3c11.6,3.1,20,8.2,25.2,15.4c5.2,7.2,7.8,16.5,7.8,27.9c0,17-6.4,30.3-19.1,40.1
		c-12.8,9.8-30.1,14.7-52.1,14.7h-72.8V41.5z M528.7,113.2h15.2c7.2,0,12.9-1.5,16.8-4.5c4-3,5.9-7.4,5.9-13.3
		c0-10.5-7.9-15.7-23.8-15.7h-14.2V113.2z M528.7,150.2v39.3h17.8c15.8,0,23.7-6.7,23.7-20c0-6.2-2.1-11-6.3-14.3
		c-4.2-3.3-10.3-5-18.4-5H528.7z"/>
	<path class="st0" d="M787.7,41.5V154c0,24.5-6.9,43.4-20.8,56.9s-33.8,20.2-59.9,20.2c-25.5,0-45.1-6.5-58.8-19.6
		c-13.7-13-20.5-31.8-20.5-56.3V41.5h50.8v109.8c0,13.2,2.5,22.8,7.4,28.8c4.9,6,12.2,9,21.9,9c10.3,0,17.8-3,22.5-8.9
		c4.6-5.9,7-15.6,7-29.1V41.5H787.7z"/>
	<path class="st0" d="M927.3,171.7c0,11.6-2.9,21.9-8.8,30.9c-5.9,9-14.4,16-25.5,21c-11.1,5-24.1,7.5-39,7.5
		c-12.5,0-22.9-0.9-31.3-2.6c-8.4-1.7-17.2-4.8-26.4-9.1v-45c9.6,4.9,19.7,8.8,30.1,11.6c10.4,2.8,20,4.2,28.7,4.2
		c7.5,0,13-1.3,16.5-3.9c3.5-2.6,5.2-5.9,5.2-10c0-2.6-0.7-4.8-2.1-6.7c-1.4-1.9-3.7-3.9-6.8-5.8c-3.1-2-11.4-6-24.9-12
		c-12.2-5.5-21.3-10.9-27.4-16.1c-6.1-5.2-10.6-11.2-13.6-17.9c-2.9-6.7-4.4-14.7-4.4-23.9c0-17.2,6.3-30.7,18.8-40.3
		c12.5-9.6,29.8-14.5,51.7-14.5c19.4,0,39.1,4.5,59.2,13.4l-15.5,39c-17.5-8-32.6-12-45.3-12c-6.6,0-11.3,1.2-14.3,3.5
		c-3,2.3-4.5,5.2-4.5,8.6c0,3.7,1.9,7,5.7,9.9c3.8,2.9,14.1,8.2,30.9,15.9c16.1,7.3,27.3,15,33.6,23.3
		C924.2,148.6,927.3,159.1,927.3,171.7z"/>
	<path class="st0" d="M1022.5,80.2c-12,0-21.4,4.9-28.1,14.8c-6.7,9.9-10.1,23.4-10.1,40.8c0,36,13.7,54,41.1,54
		c8.3,0,16.3-1.2,24.1-3.5c7.8-2.3,15.6-5.1,23.4-8.3v42.7c-15.6,6.9-33.3,10.4-53,10.4c-28.2,0-49.9-8.2-64.9-24.6
		c-15.1-16.4-22.6-40-22.6-71c0-19.4,3.6-36.4,10.9-51.1c7.3-14.7,17.8-26,31.5-33.8c13.7-7.9,29.8-11.8,48.3-11.8
		c20.2,0,39.5,4.4,58,13.2l-15.5,39.8c-6.9-3.2-13.8-6-20.7-8.2C1037.9,81.3,1030.5,80.2,1022.5,80.2z"/>
	<path class="st0" d="M1212.1,228.5l-9.2-35.1h-60.8l-9.5,35.1h-55.5l61-187.8h67.4l61.8,187.8H1212.1z M1192.3,152l-8.1-30.7
		c-1.9-6.8-4.2-15.7-6.8-26.5c-2.7-10.8-4.5-18.6-5.3-23.3c-0.8,4.4-2.3,11.5-4.5,21.5c-2.3,10-7.3,29.6-15,59H1192.3z"/>
</g>
</svg>
